<?xml version='1.0' encoding='iso-8859-1'?>
<svg version="1.1" xmlns="http://www.w3.org/2000/svg" viewBox="0 0 137.145 137.145" xmlns:xlink="http://www.w3.org/1999/xlink" enable-background="new 0 0 137.145 137.145">
  <g>
    <g>
      <path d="M54.858,75.43c0-3.787-3.07-6.857-6.857-6.857s-6.857,3.07-6.857,6.857c0,3.787,3.07,6.857,6.857,6.857    S54.858,79.218,54.858,75.43z M75.43,48.002h13.714V27.43H34.286l34.286,20.786v58.243L27.429,89.145v6.857l48.001,21v-21h13.714    V75.43H75.43V48.002z M96.001,54.859H82.287v13.714h13.714v13.715l20.571-20.572L96.001,41.144V54.859z M109.716,0H27.429    C12.28,0,0,12.281,0,27.429v82.286c0,15.149,12.28,27.429,27.428,27.429h82.287c15.148,0,27.428-12.28,27.428-27.429V27.429    C137.144,12.281,124.864,0,109.716,0z M123.43,102.859c0,11.362-9.21,20.572-20.571,20.572H34.286    c-11.361,0-20.571-9.21-20.571-20.572V34.287c0-11.361,9.21-20.572,20.571-20.572h68.572c11.361,0,20.571,9.211,20.571,20.572    V102.859z"/>
    </g>
  </g>
</svg>
